<svg xmlns="http://www.w3.org/2000/svg" xmlns:xlink="http://www.w3.org/1999/xlink" width="400" height="350" viewBox="0 0 400 350"><title>Gnuplot</title><desc>Produced by GNUPLOT 5.2 patchlevel 5</desc><g id="gnuplot_canvas"><rect width="400" height="350" x="0" y="0" fill="none"/><defs><circle id="gpDot" r=".5" stroke="currentColor" stroke-width=".5"/><path id="gpPt0" stroke="currentColor" stroke-width=".222" d="M-1,0 h2 M0,-1 v2"/><path id="gpPt1" stroke="currentColor" stroke-width=".222" d="M-1,-1 L1,1 M1,-1 L-1,1"/><path id="gpPt2" stroke="currentColor" stroke-width=".222" d="M-1,0 L1,0 M0,-1 L0,1 M-1,-1 L1,1 M-1,1 L1,-1"/><rect id="gpPt3" width="2" height="2" x="-1" y="-1" stroke="currentColor" stroke-width=".222"/><rect id="gpPt4" width="2" height="2" x="-1" y="-1" fill="currentColor" stroke="currentColor" stroke-width=".222"/><circle id="gpPt5" cx="0" cy="0" r="1" stroke="currentColor" stroke-width=".222"/><use id="gpPt6" fill="currentColor" stroke="none" xlink:href="#gpPt5"/><path id="gpPt7" stroke="currentColor" stroke-width=".222" d="M0,-1.33 L-1.33,0.67 L1.33,0.67 z"/><use id="gpPt8" fill="currentColor" stroke="none" xlink:href="#gpPt7"/><use id="gpPt9" stroke="currentColor" transform="rotate(180)" xlink:href="#gpPt7"/><use id="gpPt10" fill="currentColor" stroke="none" xlink:href="#gpPt9"/><use id="gpPt11" stroke="currentColor" transform="rotate(45)" xlink:href="#gpPt3"/><use id="gpPt12" fill="currentColor" stroke="none" xlink:href="#gpPt11"/><path id="gpPt13" stroke="currentColor" stroke-width=".222" d="M0,1.330 L1.265,0.411 L0.782,-1.067 L-0.782,-1.076 L-1.265,0.411 z"/><use id="gpPt14" fill="currentColor" stroke="none" xlink:href="#gpPt13"/><filter id="textbox" width="1" height="1" x="0" y="0" filterUnits="objectBoundingBox"><feFlood flood-color="#fff" flood-opacity="1" result="bgnd"/><feComposite in="SourceGraphic" in2="bgnd" operator="atop"/></filter><filter id="greybox" width="1" height="1" x="0" y="0" filterUnits="objectBoundingBox"><feFlood flood-color="#d3d3d3" flood-opacity="1" result="grey"/><feComposite in="SourceGraphic" in2="grey" operator="atop"/></filter></defs><g fill="none" stroke="currentColor" stroke-linecap="butt" stroke-linejoin="miter" stroke-width="1" color="#000"><path stroke="#000" d="M80.2,292.4 L89.2,292.4 M375.0,292.4 L366.0,292.4"/><g fill="#000" stroke="none" font-family="Arial" font-size="12" text-anchor="end"><text transform="translate(71.9,296.3)"><tspan font-family="Arial">0</tspan></text></g></g><g fill="none" stroke="currentColor" stroke-linecap="butt" stroke-linejoin="miter" stroke-width="1" color="#000"><path stroke="#000" d="M80.2,270.7 L89.2,270.7 M375.0,270.7 L366.0,270.7"/><g fill="#000" stroke="none" font-family="Arial" font-size="12" text-anchor="end"><text transform="translate(71.9,274.6)"><tspan font-family="Arial">500</tspan></text></g></g><g fill="none" stroke="currentColor" stroke-linecap="butt" stroke-linejoin="miter" stroke-width="1" color="#000"><path stroke="#000" d="M80.2,249.1 L89.2,249.1 M375.0,249.1 L366.0,249.1"/><g fill="#000" stroke="none" font-family="Arial" font-size="12" text-anchor="end"><text transform="translate(71.9,253.0)"><tspan font-family="Arial">1000</tspan></text></g></g><g fill="none" stroke="currentColor" stroke-linecap="butt" stroke-linejoin="miter" stroke-width="1" color="#000"><path stroke="#000" d="M80.2,227.4 L89.2,227.4 M375.0,227.4 L366.0,227.4"/><g fill="#000" stroke="none" font-family="Arial" font-size="12" text-anchor="end"><text transform="translate(71.9,231.3)"><tspan font-family="Arial">1500</tspan></text></g></g><g fill="none" stroke="currentColor" stroke-linecap="butt" stroke-linejoin="miter" stroke-width="1" color="#000"><path stroke="#000" d="M80.2,205.7 L89.2,205.7 M375.0,205.7 L366.0,205.7"/><g fill="#000" stroke="none" font-family="Arial" font-size="12" text-anchor="end"><text transform="translate(71.9,209.6)"><tspan font-family="Arial">2000</tspan></text></g></g><g fill="none" stroke="currentColor" stroke-linecap="butt" stroke-linejoin="miter" stroke-width="1" color="#000"><path stroke="#000" d="M80.2,184.1 L89.2,184.1 M375.0,184.1 L366.0,184.1"/><g fill="#000" stroke="none" font-family="Arial" font-size="12" text-anchor="end"><text transform="translate(71.9,188.0)"><tspan font-family="Arial">2500</tspan></text></g></g><g fill="none" stroke="currentColor" stroke-linecap="butt" stroke-linejoin="miter" stroke-width="1" color="#000"><path stroke="#000" d="M80.2,162.4 L89.2,162.4 M375.0,162.4 L366.0,162.4"/><g fill="#000" stroke="none" font-family="Arial" font-size="12" text-anchor="end"><text transform="translate(71.9,166.3)"><tspan font-family="Arial">3000</tspan></text></g></g><g fill="none" stroke="currentColor" stroke-linecap="butt" stroke-linejoin="miter" stroke-width="1" color="#000"><path stroke="#000" d="M80.2,140.8 L89.2,140.8 M375.0,140.8 L366.0,140.8"/><g fill="#000" stroke="none" font-family="Arial" font-size="12" text-anchor="end"><text transform="translate(71.9,144.7)"><tspan font-family="Arial">3500</tspan></text></g></g><g fill="none" stroke="currentColor" stroke-linecap="butt" stroke-linejoin="miter" stroke-width="1" color="#000"><path stroke="#000" d="M80.2,119.1 L89.2,119.1 M375.0,119.1 L366.0,119.1"/><g fill="#000" stroke="none" font-family="Arial" font-size="12" text-anchor="end"><text transform="translate(71.9,123.0)"><tspan font-family="Arial">4000</tspan></text></g></g><g fill="none" stroke="currentColor" stroke-linecap="butt" stroke-linejoin="miter" stroke-width="1" color="#000"><path stroke="#000" d="M80.2,97.4 L89.2,97.4 M375.0,97.4 L366.0,97.4"/><g fill="#000" stroke="none" font-family="Arial" font-size="12" text-anchor="end"><text transform="translate(71.9,101.3)"><tspan font-family="Arial">4500</tspan></text></g></g><g fill="none" stroke="currentColor" stroke-linecap="butt" stroke-linejoin="miter" stroke-width="1" color="#000"><path stroke="#000" d="M80.2,75.8 L89.2,75.8 M375.0,75.8 L366.0,75.8"/><g fill="#000" stroke="none" font-family="Arial" font-size="12" text-anchor="end"><text transform="translate(71.9,79.7)"><tspan font-family="Arial">5000</tspan></text></g></g><g fill="none" stroke="currentColor" stroke-linecap="butt" stroke-linejoin="miter" stroke-width="1" color="#000"><path stroke="#000" d="M80.2,54.1 L89.2,54.1 M375.0,54.1 L366.0,54.1"/><g fill="#000" stroke="none" font-family="Arial" font-size="12" text-anchor="end"><text transform="translate(71.9,58.0)"><tspan font-family="Arial">5500</tspan></text></g></g><g fill="none" stroke="currentColor" stroke-linecap="butt" stroke-linejoin="miter" stroke-width="1" color="#000"><path stroke="#000" d="M80.2,292.4 L80.2,283.4 M80.2,54.1 L80.2,63.1"/><g fill="#000" stroke="none" font-family="Arial" font-size="12" text-anchor="middle"><text transform="translate(80.2,314.3)"><tspan font-family="Arial">0</tspan></text></g></g><g fill="none" stroke="currentColor" stroke-linecap="butt" stroke-linejoin="miter" stroke-width="1" color="#000"><path stroke="#000" d="M122.3,292.4 L122.3,283.4 M122.3,54.1 L122.3,63.1"/><g fill="#000" stroke="none" font-family="Arial" font-size="12" text-anchor="middle"><text transform="translate(122.3,314.3)"><tspan font-family="Arial">10</tspan></text></g></g><g fill="none" stroke="currentColor" stroke-linecap="butt" stroke-linejoin="miter" stroke-width="1" color="#000"><path stroke="#000" d="M164.4,292.4 L164.4,283.4 M164.4,54.1 L164.4,63.1"/><g fill="#000" stroke="none" font-family="Arial" font-size="12" text-anchor="middle"><text transform="translate(164.4,314.3)"><tspan font-family="Arial">20</tspan></text></g></g><g fill="none" stroke="currentColor" stroke-linecap="butt" stroke-linejoin="miter" stroke-width="1" color="#000"><path stroke="#000" d="M206.5,292.4 L206.5,283.4 M206.5,54.1 L206.5,63.1"/><g fill="#000" stroke="none" font-family="Arial" font-size="12" text-anchor="middle"><text transform="translate(206.5,314.3)"><tspan font-family="Arial">30</tspan></text></g></g><g fill="none" stroke="currentColor" stroke-linecap="butt" stroke-linejoin="miter" stroke-width="1" color="#000"><path stroke="#000" d="M248.7,292.4 L248.7,283.4 M248.7,54.1 L248.7,63.1"/><g fill="#000" stroke="none" font-family="Arial" font-size="12" text-anchor="middle"><text transform="translate(248.7,314.3)"><tspan font-family="Arial">40</tspan></text></g></g><g fill="none" stroke="currentColor" stroke-linecap="butt" stroke-linejoin="miter" stroke-width="1" color="#000"><path stroke="#000" d="M290.8,292.4 L290.8,283.4 M290.8,54.1 L290.8,63.1"/><g fill="#000" stroke="none" font-family="Arial" font-size="12" text-anchor="middle"><text transform="translate(290.8,314.3)"><tspan font-family="Arial">50</tspan></text></g></g><g fill="none" stroke="currentColor" stroke-linecap="butt" stroke-linejoin="miter" stroke-width="1" color="#000"><path stroke="#000" d="M332.9,292.4 L332.9,283.4 M332.9,54.1 L332.9,63.1"/><g fill="#000" stroke="none" font-family="Arial" font-size="12" text-anchor="middle"><text transform="translate(332.9,314.3)"><tspan font-family="Arial">60</tspan></text></g></g><g fill="none" stroke="currentColor" stroke-linecap="butt" stroke-linejoin="miter" stroke-width="1" color="#000"><path stroke="#000" d="M375.0,292.4 L375.0,283.4 M375.0,54.1 L375.0,63.1"/><g fill="#000" stroke="none" font-family="Arial" font-size="12" text-anchor="middle"><text transform="translate(375.0,314.3)"><tspan font-family="Arial">70</tspan></text></g></g><g fill="none" stroke="currentColor" stroke-linecap="butt" stroke-linejoin="miter" stroke-width="1" color="#000"><path stroke="#000" d="M80.2,54.1 L80.2,292.4 L375.0,292.4 L375.0,54.1 L80.2,54.1 Z"/></g><g fill="none" stroke="currentColor" stroke-linecap="butt" stroke-linejoin="miter" stroke-width="1" color="#000"><g fill="#000" stroke="none" font-family="Arial" font-size="12" text-anchor="middle"><text transform="translate(16.3,173.3) rotate(270)"><tspan font-family="Arial">Tims (s)</tspan></text></g></g><g fill="none" stroke="currentColor" stroke-linecap="butt" stroke-linejoin="miter" stroke-width="1" color="#000"><g fill="#000" stroke="none" font-family="Arial" font-size="12" text-anchor="middle"><text transform="translate(227.6,341.3)"><tspan font-family="Arial">Number of executors</tspan></text></g></g><g fill="none" stroke="currentColor" stroke-linecap="butt" stroke-linejoin="miter" stroke-width="1" color="#000"><g fill="#000" stroke="none" font-family="Arial" font-size="12" text-anchor="middle"><text transform="translate(227.6,31.0)"><tspan font-family="Arial">Processing time</tspan></text></g></g><g id="gnuplot_plot_1"><title>gnuplot_plot_1</title><g fill="none" stroke="currentColor" stroke-linecap="butt" stroke-linejoin="miter" stroke-width="2" color="#000"><path stroke="#0060AD" d="M84.4,70.3 L88.6,174.5 L97.0,232.4 L113.9,258.9 L147.6,271.3 L181.3,275.6 L215.0,278.5 L282.3,280.3 L349.7,281.5"/><use color="#0060AD" transform="translate(84.4,70.3) scale(3.60)" xlink:href="#gpPt6"/><use color="#0060AD" transform="translate(88.6,174.5) scale(3.60)" xlink:href="#gpPt6"/><use color="#0060AD" transform="translate(97.0,232.4) scale(3.60)" xlink:href="#gpPt6"/><use color="#0060AD" transform="translate(113.9,258.9) scale(3.60)" xlink:href="#gpPt6"/><use color="#0060AD" transform="translate(147.6,271.3) scale(3.60)" xlink:href="#gpPt6"/><use color="#0060AD" transform="translate(181.3,275.6) scale(3.60)" xlink:href="#gpPt6"/><use color="#0060AD" transform="translate(215.0,278.5) scale(3.60)" xlink:href="#gpPt6"/><use color="#0060AD" transform="translate(282.3,280.3) scale(3.60)" xlink:href="#gpPt6"/><use color="#0060AD" transform="translate(349.7,281.5) scale(3.60)" xlink:href="#gpPt6"/></g></g><g fill="none" stroke="currentColor" stroke-linecap="butt" stroke-linejoin="miter" stroke-width="1" color="#000"><path stroke="#000" d="M80.2,54.1 L80.2,292.4 L375.0,292.4 L375.0,54.1 L80.2,54.1 Z"/></g></g></svg>